# xmcd
#
# Track frame offsets: 
#        150
#        26708
#        46301
#        62761
#        90581
#        109061
#        124148
#        145068
#        166706
#        188781
#        206236
#
# Disc length: 3069 seconds
#
# Revision: 0
# Processed by: cddbd v1.5.2PL0 Copyright (c) Steve Scherf et al.
# Submitted via: ExactAudioCopy v1.0b3
#
DISCID=960bfb0b
DTITLE=Various Artist - Chuyen Mot Nguoi Di
DYEAR=1989
DGENRE=
TTITLE0=Huong Lan - Chuyen mot nguoi di
TTITLE1=Duy Quang - Yeu
TTITLE2=Thanh Tuyen - Cay dang tinh doi
TTITLE3=Phuong Mai - Noi buon thanh truc
TTITLE4=Bang Chau - Mot phut suy tu
TTITLE5=Kim Anh, Duy Quang - Ai buon hon ai
TTITLE6=Phuong Hong Ngoc - Mon qua ky niem
TTITLE7=Hoa Mi - Bai buon cho em
TTITLE8=Phuong Dung - Mot lan xa ben
TTITLE9=Quoc Anh - Hoa cai mai toc
TTITLE10=Thanh Tuyen - Anh di chien dich
EXTD=
EXTT0=
EXTT1=
EXTT2=
EXTT3=
EXTT4=
EXTT5=
EXTT6=
EXTT7=
EXTT8=
EXTT9=
EXTT10=
PLAYORDER=
